<?xml version="1.0" encoding="UTF-8" standalone="no"?>
<svg
   width="3517.6465"
   xml:space="preserve"
   height="1600"
   version="1.1"
   id="svg910"
   sodipodi:docname="logo.svg"
   xmlns:inkscape="http://www.inkscape.org/namespaces/inkscape"
   xmlns:sodipodi="http://sodipodi.sourceforge.net/DTD/sodipodi-0.dtd"
   xmlns="http://www.w3.org/2000/svg"
   xmlns:svg="http://www.w3.org/2000/svg"><sodipodi:namedview
     id="namedview912"
     pagecolor="#ffffff"
     bordercolor="#666666"
     borderopacity="1.0"
     inkscape:pageshadow="2"
     inkscape:pageopacity="0.0"
     inkscape:pagecheckerboard="0"
     showgrid="false"
     inkscape:zoom="0.14388188"
     inkscape:cx="1598.5335"
     inkscape:cy="1998.1668"
     inkscape:window-width="1920"
     inkscape:window-height="1017"
     inkscape:window-x="-8"
     inkscape:window-y="-8"
     inkscape:window-maximized="1"
     inkscape:current-layer="svg910"
     fit-margin-top="0"
     fit-margin-left="0"
     fit-margin-right="0"
     fit-margin-bottom="0"
     inkscape:showpageshadow="2"
     inkscape:deskcolor="#d1d1d1" /><defs
     id="defs872"><inkscape:path-effect
       effect="spiro"
       id="path-effect1801"
       is_visible="true"
       lpeversion="1" /><inkscape:path-effect
       effect="simplify"
       id="path-effect1799"
       is_visible="true"
       lpeversion="1"
       steps="1"
       threshold="0.00108696"
       smooth_angles="360"
       helper_size="0"
       simplify_individual_paths="false"
       simplify_just_coalesce="false" /><inkscape:path-effect
       effect="spiro"
       id="path-effect1762"
       is_visible="true"
       lpeversion="1" /><inkscape:path-effect
       effect="simplify"
       id="path-effect1760"
       is_visible="true"
       lpeversion="1"
       steps="1"
       threshold="0.00243902"
       smooth_angles="360"
       helper_size="0"
       simplify_individual_paths="false"
       simplify_just_coalesce="false" /><inkscape:path-effect
       effect="simplify"
       id="path-effect1754"
       is_visible="true"
       lpeversion="1"
       steps="1"
       threshold="0.00243902"
       smooth_angles="360"
       helper_size="0"
       simplify_individual_paths="false"
       simplify_just_coalesce="false" /><inkscape:path-effect
       effect="spiro"
       id="path-effect1469"
       is_visible="true"
       lpeversion="1" /><inkscape:path-effect
       effect="simplify"
       id="path-effect1467"
       is_visible="true"
       lpeversion="1"
       steps="1"
       threshold="0.00108696"
       smooth_angles="360"
       helper_size="0"
       simplify_individual_paths="false"
       simplify_just_coalesce="false" /><inkscape:path-effect
       effect="spiro"
       id="path-effect1430"
       is_visible="true"
       lpeversion="1" /><inkscape:path-effect
       effect="simplify"
       id="path-effect1428"
       is_visible="true"
       lpeversion="1"
       steps="1"
       threshold="0.00243902"
       smooth_angles="360"
       helper_size="0"
       simplify_individual_paths="false"
       simplify_just_coalesce="false" /><clipPath
       clipPathUnits="userSpaceOnUse"
       id="a-4"><circle
         style="fill:#000000;stroke-width:20.0196;stroke-linecap:round;stroke-linejoin:round;paint-order:markers fill stroke"
         cx="1096.875"
         cy="1615.625"
         r="1059.375"
         id="circle869-8" /></clipPath></defs><path
     id="logo-mark"
     style="display:inline;fill:#222b00;stroke-width:1.88976;stroke-linecap:round;stroke-linejoin:round;paint-order:markers fill stroke"
     inkscape:label="logo-mark"
     d="M 800,0 C 587.82702,0 384.3434,84.285495 234.31445,234.31445 84.285495,384.3434 0,587.82702 0,800 0.67954013,858.87425 7.856487,917.49374 21.400391,974.79297 38.151185,963.15678 56.772464,953.09046 77.732422,945.10352 149.94823,900.1278 207.72426,885.33072 279.98633,819.86719 c 48.79706,-78.54393 80.6828,-169.44494 132.68359,-284.68946 0.109,-0.10946 9.375,-15.56054 9.375,-15.56054 12.06623,-18.9948 19.05275,-29.7134 23.60547,-39.97852 0,0 -4.43526,7.52558 6.51563,-12.16211 42.34574,-78.02747 84.82895,-140.78344 129.5625,-191.76172 79.85686,-76.95008 91.18475,-76.53663 178.92968,-91.58398 h 0.002 c 39.2377,-1.22636 88.63801,8.466 135.73046,22.10937 90.13153,20.24338 152.37804,55.58187 215.19134,101.29493 0.356,0.38486 0.7685,0.63876 1.1387,0.99218 10.9148,4.5985 47.4427,39.97712 58.1484,44.33204 41.4567,24.80209 75.9318,57.85514 117.6836,100.07812 46.9653,66.61965 46.9315,68.86404 54.4649,118.67578 -12.9542,76.01754 -61.0094,102.79096 -169.7891,77.03906 -0.297,-0.12674 -0.5098,-0.319 -0.793,-0.45507 -76.7436,-28.96937 -179.03159,-100.60207 -243.19523,-69.76954 29.97584,53.34704 306.23983,285.04379 168.63473,318.03321 -28.1038,4.16235 -67.2322,4.01022 -135.92965,-12.66797 -43.64443,-12.64319 -58.87607,-21.79589 -96.61719,-40.06055 -0.33663,-0.28552 -42.19497,-27.84514 -42.13867,-28.16406 -4.05557,-3.69082 -7.81549,-3.30957 -11.20507,0.76172 -1.12636,1.35361 -2.60958,2.27424 -4.24805,3.69726 -0.30913,0.31302 -0.32783,0.19604 -0.26953,0.18164 -45.38224,46.97583 -65.16585,84.06756 -91.2168,135.0586 -0.0462,-0.14835 0.0803,-0.31023 0.0547,-0.48047 -0.0806,0.0695 -0.12914,0.15571 -0.21094,0.22461 -19.05568,52.31488 -13.3453,117.69358 -8.55859,168.99998 -0.22543,0.1169 -0.37222,0.2919 -0.58789,0.416 1.25576,2.0842 2.04095,4.0445 3.08398,6.3848 0.65028,1.1847 1.03558,1.9875 1.41016,3.1309 -0.20442,0.1083 -0.43674,0.1198 -0.64453,0.2168 0.0761,0.038 0.14019,0.045 0.21679,0.084 2.47997,3.8932 4.78363,2.1747 7.27539,0.4629 50.39637,-34.1219 98.11102,-33.2736 150.56641,-43.5683 6.28014,-0.8939 12.48495,-0.9394 18.74219,-1.0625 22.32511,-0.4162 42.34029,-0.6864 66.32617,1.7617 -0.47675,0.2434 -0.58532,0.5761 -0.93555,0.8496 0.35678,-0.1208 0.44785,-0.3209 0.86524,-0.4238 60.98973,2.9055 -23.62408,46.7785 -56.98243,61.1289 -1.7786,1.0052 -2.80012,2.6034 -4.13867,4.6269 5.70388,2.051 26.44788,1.3325 29.57813,6.0586 9.93045,23.6718 -126.85589,45.1792 -164.22071,84.3692 -6.07124,3.5835 -11.61579,7.6975 -16.98437,12.8828 -0.30843,0.3405 -0.31944,0.4275 -0.36524,0.4375 -6.88959,4.0415 -16.21417,15.1826 -21.53711,16.084 0.0192,-0.158 0.18687,-0.2454 0.22657,-0.3887 -0.0467,0.01 -0.0733,0.029 -0.1211,0.039 -0.51211,0.5148 -0.59696,0.9359 -0.82812,1.9863 -0.18994,0.2255 -0.39059,0.3909 -0.58203,0.6133 1.59483,1.3452 3.13502,1.9147 5.17773,2.3359 12.25152,14.0952 44.42315,20.5699 63.29102,23.8672 37.58878,4.8987 158.70395,-34.09 206.17578,-5.8457 -2.01829,2.3876 -3.66822,4.4014 -5.52149,6.8047 -4.29852,3.3051 -8.37,6.2599 -13.01757,9.1465 -7.21399,0.9123 -12.9799,4.7875 -19.88086,6.9355 -0.2973,0.2268 -0.48785,0.4597 -0.72461,0.6738 0.37533,0.915 0.25667,1.8068 -1.5918,1.959 -0.0992,-0.2424 0.0539,-0.3339 0.0449,-0.5195 -0.0598,0.058 -0.10682,0.098 -0.16992,0.1582 -5.23236,1.2089 -9.36337,4.1197 -9.79492,8.8183 -0.36607,3.9907 3.30489,7.241 6.83789,9.5645 1.08052,0.7112 2.29418,1.2214 3.75977,2.1055 0.46869,0.6113 1.05568,0.7567 1.58593,1.0254 0.39357,0.1349 0.76013,0.1714 1.21485,0.5039 -0.1009,0.07 -0.20906,0.029 -0.3125,0.08 0.0556,0.019 0.075,0.067 0.13281,0.086 13.84423,10.6062 22.01497,14.3706 30.08984,26.8496 2.30513,4.1616 1.74918,8.2174 0.44141,12.459 -17.45034,4.2645 -38.06311,5.5029 -55.76367,1.541 -88.36173,-3.6241 -196.0745,12.7369 -282.53516,-20.7168 -4.2468,-1.8127 -7.82326,-4.6987 -12.44922,-6.6895 -0.22035,-0.2307 -0.24747,-0.4296 -0.41992,-0.6523 -3.10297,2.266 -4.74043,5.3605 -6.89844,7.9863 l -11.78515,28.2422 C 593.7739,1454.752 569.5308,1507.7439 543.95117,1556.1582 626.34213,1584.6244 712.83194,1599.4335 800,1600 c 168.20377,0 330.8349,-53.1484 465.8125,-149.8535 v -345.791 h -191.9258 v -71.3203 h 467.5957 v 66.9472 C 1579.6866,1005.5518 1600,903.84138 1600,800 1600,587.82702 1515.7145,384.3434 1365.6855,234.31445 1215.6566,84.285495 1012.173,0 800,0 Z m 741.4824,1099.9824 c -0.586,1.4484 -1.093,2.9281 -1.6875,4.3731 h 1.6875 z m -1.6875,4.3731 h -193.4453 v 279.7304 c 6.4929,-6.0734 13.0287,-12.0931 19.3359,-18.4004 75.4758,-75.4757 134.2717,-164.4969 174.1094,-261.33 z m -193.4453,279.7304 c -25.5131,23.8652 -52.4112,45.9097 -80.5371,66.0606 v 143.4433 h 80.5371 z M 811.06445,323.55273 c -14.7475,0.51136 -27.29683,10.90029 -30.55273,25.29297 4.29702,-3.96589 9.92599,-6.17468 15.77344,-6.18945 12.89235,6e-5 23.34369,10.45139 23.34375,23.34375 -0.004,9.09351 -5.28815,17.35713 -13.54102,21.17578 1.62091,0.57575 3.285,1.02181 4.97656,1.33399 17.93734,-1.1e-4 32.47842,-14.54119 32.47852,-32.47852 -10e-5,-17.93733 -14.54118,-32.47841 -32.47852,-32.47852 z M 2929.4453,1026.623 c -85.2116,0 -156.9335,27.7806 -215.166,83.3418 -57.9653,55.5613 -86.9492,124.0789 -86.9492,205.5508 0,51.2873 12.6899,98.968 38.0664,143.043 25.3765,44.075 59.8342,78.668 103.375,103.7773 43.5407,25.1094 96.564,37.6641 159.0703,37.6641 76.9309,0 144.7803,-16.0275 203.5469,-48.082 v -88.1504 c -64.6433,41.6709 -130.8895,62.5078 -198.7383,62.5078 -64.9104,0 -118.2001,-19.7688 -159.8711,-59.3027 -41.6709,-39.534 -62.5078,-90.0192 -62.5078,-151.4571 0,-60.9036 21.1034,-111.5241 63.3086,-151.8594 42.4723,-40.6024 95.764,-60.9023 159.873,-60.9023 62.5064,0 126.4811,18.6987 191.9258,56.0957 v -86.1465 c -71.8556,-30.7189 -137.1669,-46.0801 -195.9336,-46.0801 z m 437.5449,0 c -48.8831,0 -88.6833,13.758 -119.4023,41.2715 -30.4518,27.5135 -45.6777,63.3078 -45.6777,107.3828 0,29.3833 8.0137,55.4275 24.041,78.1329 16.2944,22.4381 43.54,45.2761 81.7383,68.5156 l 60.9043,36.8633 c 49.1502,30.4517 73.7246,62.7732 73.7246,96.9648 0,21.1025 -8.4136,38.7332 -25.2422,52.8906 -16.5615,13.8904 -37.3984,20.836 -62.5078,20.836 -56.8969,0 -106.9823,-27.3808 -150.2559,-82.1407 v 101.7735 c 45.4106,33.9243 95.7645,50.8867 151.0586,50.8867 48.0818,0 87.0805,-14.0246 116.998,-42.0723 30.1847,-28.0477 45.2774,-64.5084 45.2774,-109.3847 0,-63.0406 -34.1912,-114.8624 -102.5742,-155.4649 l -61.3047,-36.0625 c -27.5135,-16.0272 -47.4136,-31.3864 -59.7012,-46.0781 -12.2875,-14.6917 -18.4316,-30.4526 -18.4316,-47.2813 0,-18.9655 8.4136,-34.458 25.2422,-46.4785 16.8286,-12.2876 38.3318,-18.4316 64.5097,-18.4316 46.479,0 89.8874,19.367 130.2227,58.0996 v -90.9551 c -38.9997,-26.1779 -81.8729,-39.2676 -128.6192,-39.2676 z m -1621.5605,7.2129 v 559.7539 h 80.1367 v -243.6152 h 20.8359 c 26.1779,0 44.7414,3.0711 55.6934,9.2149 11.2191,5.8766 23.6406,15.6268 37.2637,29.25 13.8903,13.6231 29.1162,31.9221 45.6777,54.8945 l 26.8457,43.6738 24.8438,40.8692 15.625,22.0371 c 2.404,3.2054 4.0072,5.4768 4.8086,6.8125 l 24.4414,36.8632 h 95.3632 l -29.6503,-40.0683 c -11.7534,-16.0273 -27.3811,-39.9352 -46.8809,-71.7227 -30.9861,-50.4859 -55.0273,-85.8804 -72.1231,-106.1816 -17.0957,-20.3012 -34.5911,-36.3268 -52.4882,-48.0801 30.4518,-11.7533 53.8247,-29.5172 70.1191,-53.291 16.2944,-23.7738 24.4414,-51.9561 24.4414,-84.5449 0,-47.8147 -16.6958,-85.7453 -50.0859,-113.793 -33.1231,-28.0477 -77.9993,-42.0723 -134.6289,-42.0723 z m 493.2402,0 v 558.9512 h 324.9531 v -71.3203 h -244.8164 v -173.8965 h 229.1895 v -71.7226 h -229.1895 v -170.6895 h 237.2032 v -71.3223 z m -413.1035,68.1153 h 24.041 c 39.2668,0 67.314,2.9397 84.1426,8.8164 17.0957,5.8766 30.3187,16.0266 39.668,30.4512 9.3492,14.1573 14.0234,30.0515 14.0234,47.6816 0,17.8971 -4.2744,33.9246 -12.8223,48.082 -8.2808,13.8903 -20.0338,24.3068 -35.2597,31.252 -14.9588,6.9452 -42.7395,10.4179 -83.3418,10.4179 h -30.4512 z m -376.6406,270.8613 v 78.1348 h 199.539 v -78.1348 z"><title
       id="title1">logo-mark</title></path></svg>
