<?xml version="1.0" encoding="UTF-8" standalone="no"?>
<!-- Created with Inkscape (http://www.inkscape.org/) -->

<svg
   width="155.04965mm"
   height="28.905584mm"
   viewBox="0 0 155.04965 28.905584"
   version="1.1"
   id="svg5"
   inkscape:version="1.1.2 (b8e25be833, 2022-02-05)"
   sodipodi:docname="logo.svg"
   xmlns:inkscape="http://www.inkscape.org/namespaces/inkscape"
   xmlns:sodipodi="http://sodipodi.sourceforge.net/DTD/sodipodi-0.dtd"
   xmlns="http://www.w3.org/2000/svg"
   xmlns:svg="http://www.w3.org/2000/svg">
  <sodipodi:namedview
     id="namedview7"
     pagecolor="#ffffff"
     bordercolor="#666666"
     borderopacity="1.0"
     inkscape:pageshadow="2"
     inkscape:pageopacity="0.0"
     inkscape:pagecheckerboard="0"
     inkscape:document-units="mm"
     showgrid="false"
     inkscape:zoom="0.74029882"
     inkscape:cx="195.86685"
     inkscape:cy="-195.86685"
     inkscape:window-width="1920"
     inkscape:window-height="1017"
     inkscape:window-x="-8"
     inkscape:window-y="-8"
     inkscape:window-maximized="1"
     inkscape:current-layer="g1099"
     fit-margin-top="0"
     fit-margin-left="0"
     fit-margin-right="0"
     fit-margin-bottom="0" />
  <defs
     id="defs2">
    <rect
       x="306.63293"
       y="533.5683"
       width="445.09055"
       height="101.31043"
       id="rect7673" />
  </defs>
  <g
     inkscape:label="Layer 1"
     inkscape:groupmode="layer"
     id="layer1"
     transform="translate(-22.623847,-134.04721)">
    <g
       id="g1099">
      <circle
         style="fill:none;stroke:#6b7e63;stroke-width:1.43228;stroke-miterlimit:4;stroke-dasharray:none;stroke-opacity:1;paint-order:markers fill stroke"
         id="path846"
         cx="37.076637"
         cy="148.5"
         r="13.73665" />
      <circle
         style="fill:#ffffff;stroke:#000000;stroke-width:1.43228;stroke-miterlimit:4;stroke-dasharray:none;paint-order:markers fill stroke;fill-opacity:1"
         id="path846-5"
         cx="37.076637"
         cy="148.5"
         r="11.476766" />
      <path
         style="fill:none;stroke:#000000;stroke-width:1.43228;stroke-linecap:round;stroke-linejoin:miter;stroke-miterlimit:4;stroke-dasharray:none;stroke-opacity:1"
         d="m 37.062703,139.30027 c 0,8.3995 0.03012,8.43464 0.03012,8.43464"
         id="path2034" />
      <path
         style="fill:none;stroke:#000000;stroke-width:1.43228;stroke-linecap:round;stroke-linejoin:miter;stroke-miterlimit:4;stroke-dasharray:none;stroke-opacity:1"
         d="m 37.61578,149.17447 c 4.933852,5.05478 4.933852,5.05478 4.933852,5.05478"
         id="path3461" />
      <circle
         style="fill:#ffffff;fill-opacity:0.973684;stroke:#000000;stroke-width:1.43228;stroke-miterlimit:4;stroke-dasharray:none;paint-order:markers fill stroke"
         id="path846-5-4"
         cx="37.076637"
         cy="148.5"
         r="1.5887241" />
      <g
         aria-label="WEB TIME CARD"
         transform="matrix(0.34660482,0,0,0.34660482,-49.986301,-45.055851)"
         id="text7671"
         style="font-size:40px;line-height:0.95;font-family:'Copperplate Gothic Light';-inkscape-font-specification:'Copperplate Gothic Light, Normal';white-space:pre;shape-inside:url(#rect7673);fill:#333c2f;fill-opacity:1">
        <path
           d="m 327.92187,549.11741 -6.75781,19.47265 q -0.39062,1.15235 -0.39062,1.60157 0,0.64453 1.11328,0.95703 v 0.625 h -6.46485 v -0.625 q 1.11329,-0.21485 1.11329,-0.95703 0,-0.41016 -0.42969,-1.60157 l -7.12891,-19.6289 q -0.74219,-2.01172 -1.15234,-2.51953 -0.39063,-0.52735 -1.32813,-0.70313 v -0.625 h 6.25 v 0.625 q -1.17187,0.13672 -1.17187,0.99609 0,0.3125 0.52734,1.81641 l 6.64063,18.82813 6.58203,-18.82813 q 0.5664,-1.66016 0.5664,-1.91406 0,-0.70313 -1.11328,-0.89844 v -0.625 h 6.79688 v 0.625 q -1.11328,0.27344 -1.11328,0.99609 0,0.29297 0.52734,1.81641 l 6.46484,18.82813 6.40625,-18.82813 q 0.46875,-1.40625 0.46875,-1.85547 0,-0.74219 -1.09375,-0.95703 v -0.625 h 5.87891 v 0.625 q -0.95703,0.19531 -1.40625,0.76172 -0.42969,0.54687 -1.07422,2.46094 l -6.8164,19.6289 q -0.39063,1.13282 -0.39063,1.50391 0,0.78125 1.11328,1.05469 v 0.625 h -6.36719 v -0.625 q 1.11329,-0.25391 1.11329,-1.07422 0,-0.25391 -0.39063,-1.32813 z"
           id="path1693"
           style="fill:#333c2f;fill-opacity:1" />
        <path
           d="m 356.22266,559.33225 v 9.90234 h 17.08984 q 0.82031,0 1.15234,-0.2539 0.35157,-0.25391 0.52735,-0.9961 h 0.625 v 5.03907 h -0.60547 q -0.19531,-0.74219 -0.54688,-0.9961 -0.33203,-0.2539 -1.15234,-0.2539 h -21.40625 v -0.625 q 0.76172,-0.19532 0.99609,-0.52735 0.25391,-0.33203 0.25391,-1.15234 v -22.05078 q 0,-0.82031 -0.25391,-1.15235 -0.2539,-0.33203 -0.99609,-0.52734 v -0.625 h 21.15234 q 0.82032,0 1.15235,-0.25391 0.33203,-0.2539 0.52734,-1.01562 h 0.625 v 5.03906 h -0.625 q -0.17578,-0.72265 -0.52734,-0.97656 -0.33203,-0.25391 -1.15235,-0.25391 h -16.83593 v 9.14063 h 11.03515 q 0.82031,0 1.15235,-0.25391 0.35156,-0.2539 0.52734,-0.99609 h 0.625 v 5.03906 h -0.625 q -0.17578,-0.74219 -0.52734,-0.99609 -0.33204,-0.25391 -1.15235,-0.25391 z"
           id="path1695"
           style="fill:#333c2f;fill-opacity:1" />
        <path
           d="m 402.10156,557.926 q 4.64844,1.5625 4.64844,6.44531 0,2.36328 -1.25,4.16016 -1.23047,1.77734 -3.32031,2.51953 -2.08985,0.72266 -5.95703,0.72266 h -15.52735 v -0.625 q 0.74219,-0.19532 0.9961,-0.52735 0.2539,-0.33203 0.2539,-1.15234 v -22.05078 q 0,-0.82031 -0.2539,-1.15235 -0.25391,-0.35156 -0.9961,-0.52734 v -0.625 h 15.89844 q 2.34375,0 3.86719,0.37109 1.54297,0.3711 2.71484,1.23047 2.69531,1.9336 2.69531,5.54688 0,3.84765 -3.76953,5.66406 z m -17.08984,-1.30859 h 10.27344 q 2.1875,0 3.26171,-0.13672 1.09375,-0.13672 2.01172,-0.50781 1.13282,-0.46875 1.75782,-1.44532 0.625,-0.97656 0.625,-2.26562 0,-1.71875 -1.11329,-2.92969 -0.89843,-0.95703 -2.34375,-1.30859 -1.42578,-0.3711 -4.39453,-0.3711 h -10.07812 z m 0,12.61718 h 10.70312 q 2.30469,0 3.41797,-0.13671 1.11328,-0.15625 2.07031,-0.58594 1.17188,-0.54688 1.81641,-1.64063 0.66406,-1.09375 0.66406,-2.53906 0,-1.91406 -1.15234,-3.26172 -0.95703,-1.11328 -2.44141,-1.5039 -1.48437,-0.41016 -4.57031,-0.41016 h -10.50781 z"
           id="path1697"
           style="fill:#333c2f;fill-opacity:1" />
        <path
           d="m 433.68359,547.65256 v 21.81641 q 0,0.80078 0.25391,1.15234 0.25391,0.33203 0.99609,0.52735 v 0.625 h -5.5664 v -0.625 q 0.74218,-0.19532 0.99609,-0.52735 0.25391,-0.33203 0.25391,-1.15234 v -21.81641 h -9.02344 q -0.82031,0 -1.17188,0.25391 -0.33203,0.23437 -0.50781,0.97656 h -0.625 v -5.03906 h 0.625 q 0.17578,0.76172 0.50781,1.01562 0.35157,0.25391 1.17188,0.25391 h 21.11328 q 0.82031,0 1.15234,-0.25391 0.35157,-0.2539 0.52735,-1.01562 h 0.625 v 5.03906 h -0.625 q -0.17578,-0.74219 -0.52735,-0.97656 -0.33203,-0.25391 -1.15234,-0.25391 z"
           id="path1699"
           style="fill:#333c2f;fill-opacity:1" />
        <path
           d="m 449.60156,569.46897 v -22.05078 q 0,-0.82031 -0.2539,-1.15235 -0.25391,-0.35156 -0.9961,-0.52734 v -0.625 h 5.56641 v 0.625 q -0.74219,0.19531 -0.9961,0.52734 -0.2539,0.33204 -0.2539,1.15235 v 22.05078 q 0,0.82031 0.23437,1.15234 0.25391,0.33203 1.01563,0.52735 v 0.625 h -5.56641 v -0.625 q 0.76172,-0.19532 0.9961,-0.52735 0.2539,-0.33203 0.2539,-1.15234 z"
           id="path1701"
           style="fill:#333c2f;fill-opacity:1" />
        <path
           d="m 475.03125,571.77366 -11.19141,-22.40235 v 20.09766 q 0,0.80078 0.25391,1.15234 0.25391,0.33203 0.99609,0.52735 v 0.625 h -5.29297 v -0.625 q 0.74219,-0.19532 0.9961,-0.52735 0.2539,-0.33203 0.2539,-1.15234 v -22.05078 q 0,-0.82031 -0.2539,-1.15235 -0.25391,-0.35156 -0.9961,-0.52734 v -0.625 h 6.91407 v 0.625 q -0.95703,0.33203 -0.95703,0.82031 0,0.23438 0.64453,1.50391 l 8.86718,17.59766 8.90625,-17.75391 q 0.46875,-0.9375 0.46875,-1.32813 0,-0.50781 -0.95703,-0.83984 v -0.625 h 6.97266 v 0.625 q -0.74219,0.19531 -0.99609,0.52734 -0.25391,0.33204 -0.25391,1.15235 v 22.05078 q 0,0.80078 0.25391,1.15234 0.2539,0.33203 0.99609,0.52735 v 0.625 h -5.56641 v -0.625 q 0.76172,-0.19532 0.9961,-0.52735 0.2539,-0.33203 0.2539,-1.15234 v -20.09766 z"
           id="path1703"
           style="fill:#333c2f;fill-opacity:1" />
        <path
           d="m 500.83203,559.33225 v 9.90234 h 17.08984 q 0.82032,0 1.15235,-0.2539 0.35156,-0.25391 0.52734,-0.9961 h 0.625 v 5.03907 h -0.60547 q -0.19531,-0.74219 -0.54687,-0.9961 -0.33203,-0.2539 -1.15235,-0.2539 h -21.40625 v -0.625 q 0.76172,-0.19532 0.9961,-0.52735 0.2539,-0.33203 0.2539,-1.15234 v -22.05078 q 0,-0.82031 -0.2539,-1.15235 -0.25391,-0.33203 -0.9961,-0.52734 v -0.625 h 21.15235 q 0.82031,0 1.15234,-0.25391 0.33203,-0.2539 0.52735,-1.01562 h 0.625 v 5.03906 h -0.625 q -0.17579,-0.72265 -0.52735,-0.97656 -0.33203,-0.25391 -1.15234,-0.25391 h -16.83594 v 9.14063 h 11.03516 q 0.82031,0 1.15234,-0.25391 0.35156,-0.2539 0.52734,-0.99609 h 0.625 v 5.03906 h -0.625 q -0.17578,-0.74219 -0.52734,-0.99609 -0.33203,-0.25391 -1.15234,-0.25391 z"
           id="path1705"
           style="fill:#333c2f;fill-opacity:1" />
        <path
           d="m 563.41016,547.41819 -2.89063,4.82422 -0.52734,-0.3125 q 0.17578,-0.58594 0.17578,-0.91797 0,-0.80078 -2.5,-2.01172 -3.4375,-1.67969 -7.5,-1.67969 -5.46875,0 -8.86719,3.02735 -3.45703,3.08593 -3.45703,7.98828 0,4.88281 3.59375,8.10547 3.47656,3.14453 8.57422,3.14453 4.98047,0 8.78906,-2.91016 1.71875,-1.30859 1.71875,-1.85547 0,-0.27344 -0.33203,-0.89844 l 0.46875,-0.37109 3.47656,4.21875 -0.48828,0.39063 q -0.54687,-0.48829 -0.89844,-0.48829 -0.21484,0 -0.74218,0.41016 -1.79688,1.34766 -2.98829,2.03125 -1.17187,0.66406 -2.57812,1.13281 -2.91016,0.9961 -6.40625,0.9961 -6.73828,0 -10.95703,-3.75 -4.4336,-3.92578 -4.4336,-10.01953 0,-4.80469 2.77344,-8.32032 4.33594,-5.50781 12.98828,-5.50781 5.72266,0 11.07422,3.02734 0.35156,0.19532 0.48828,0.19532 0.25391,0 0.91797,-0.74219 z"
           id="path1707"
           style="fill:#333c2f;fill-opacity:1" />
        <path
           d="m 587.78516,564.29319 h -14.27735 l -2.34375,5.05859 q -0.33203,0.72266 -0.33203,1.01563 0,0.58593 1.15234,0.78125 v 0.625 h -5.9375 v -0.625 q 0.80079,-0.13672 1.21094,-0.58594 0.42969,-0.44922 1.11328,-1.95313 l 9.76563,-21.07421 q 0.35156,-0.76172 0.35156,-1.03516 0,-0.50781 -0.95703,-0.76172 v -0.625 h 6.48437 v 0.625 q -0.95703,0.3125 -0.95703,0.82031 0,0.21485 0.35157,0.97657 l 9.35546,20.3125 q 1.03516,2.24609 1.36719,2.63671 0.33203,0.39063 1.44531,0.66407 v 0.625 H 589.25 v -0.625 q 1.13281,-0.15625 1.13281,-0.85938 0,-0.3125 -0.42969,-1.21094 z m -1.15235,-2.53906 -5.99609,-13.16407 -5.97656,13.16407 z"
           id="path1709"
           style="fill:#333c2f;fill-opacity:1" />
        <path
           d="m 602.66797,559.76194 v 9.70703 q 0,0.80078 0.2539,1.15234 0.25391,0.33203 0.9961,0.52735 v 0.625 h -5.56641 v -0.625 q 0.74219,-0.19532 0.9961,-0.52735 0.2539,-0.33203 0.2539,-1.15234 v -22.05078 q 0,-0.82031 -0.2539,-1.15235 -0.25391,-0.35156 -0.9961,-0.52734 v -0.625 h 14.62891 q 3.00781,0 4.74609,0.33203 1.75781,0.3125 3.04688,1.11328 1.32812,0.82032 2.14843,2.2461 0.9375,1.62109 0.9375,3.65234 0,3.04688 -2.03125,4.98047 -2.01171,1.91406 -5.54687,2.1875 l 6.77734,10.54687 q 0.60547,0.97657 1.75782,0.97657 v 0.625 h -6.17188 v -0.625 q 0.95703,-0.15625 0.95703,-0.54688 0,-0.19531 -0.68359,-1.26953 l -6.05469,-9.57031 z m 0,-2.51953 h 10.80078 q 2.20703,0 3.32031,-0.17578 1.13281,-0.19532 1.99219,-0.6836 2.01172,-1.17187 2.01172,-3.92578 0,-2.77344 -2.07031,-3.94531 -0.91797,-0.50781 -2.05079,-0.6836 -1.11328,-0.17578 -3.47656,-0.17578 h -10.52734 z"
           id="path1711"
           style="fill:#333c2f;fill-opacity:1" />
        <path
           d="m 630.34375,569.74241 v -22.59766 q 0,-0.58594 -0.27344,-0.89844 -0.27344,-0.3125 -0.97656,-0.50781 v -0.625 h 14.0625 q 4.78516,0 7.32422,1.32813 3.20312,1.66015 4.88281,5.11718 1.46484,3.02735 1.46484,6.875 0,4.55078 -1.97265,7.85157 -1.77735,2.92968 -4.51172,4.21875 -2.71484,1.26953 -7.1875,1.26953 h -14.0625 v -0.625 q 0.70312,-0.19532 0.97656,-0.50782 0.27344,-0.3125 0.27344,-0.89843 z m 3.06641,-0.50782 h 9.6289 q 4.23828,0 6.28906,-1.30859 2.42188,-1.5625 3.55469,-4.78516 0.74219,-2.14843 0.74219,-4.70703 0,-4.64843 -2.36328,-7.69531 -1.3086,-1.67969 -3.1836,-2.38281 -1.875,-0.70313 -5.03906,-0.70313 h -9.6289 z"
           id="path1713"
           style="fill:#333c2f;fill-opacity:1" />
      </g>
    </g>
  </g>
</svg>
